<?xml version="1.0" encoding="utf-8"?>
<!-- Generator: Adobe Illustrator 18.0.0, SVG Export Plug-In . SVG Version: 6.00 Build 0)  -->
<!DOCTYPE svg PUBLIC "-//W3C//DTD SVG 1.1//EN" "http://www.w3.org/Graphics/SVG/1.1/DTD/svg11.dtd">
<svg version="1.1" id="Calque_1" xmlns="http://www.w3.org/2000/svg" xmlns:xlink="http://www.w3.org/1999/xlink" x="0px" y="0px"
	 width="612px" height="792px" viewBox="0 0 612 792" style="enable-background:new 0 0 612 792;" xml:space="preserve">
<g>
	<g>
		<path style="fill:#FFFFFF;" d="M192.5,378.1c-17.9,0-31.9,14-31.9,31.9c0,17.9,14,31.9,31.9,31.9s31.9-14,31.9-31.9
			C225.7,392.2,210.4,378.1,192.5,378.1z"/>
		<circle style="fill:#FFFFFF;" cx="388.9" cy="410" r="31.9"/>
		<path style="fill:#FFFFFF;" d="M303.4,378.1c-17.8,0-31.9,14-31.9,31.9c0,17.9,14,31.9,31.9,31.9c17.9,0,31.9-14,31.9-31.9
			C335.3,392.2,321.3,378.1,303.4,378.1z"/>
		<path style="fill:#FFFFFF;" d="M299.6,243c-94.3,0-172.1,76.5-172.1,172.1s77.8,172.1,172.1,172.1c95.6,0,172.1-76.5,172.1-172.1
			V243H299.6z M234.6,445.7c0,2.5-1.3,3.8-3.8,3.8c-2.6,0-3.8-1.3-3.8-3.8v-14c-7.7,11.5-20.4,17.9-33.2,17.9
			c-22.9,0-40.8-17.9-40.8-40.8c0-22.9,17.8-40.8,40.8-40.8c12.8,0,25.5,6.4,33.2,17.9v-7.6c0-2.6,1.3-3.8,3.8-3.8
			c2.6,0,3.8,1.3,3.8,3.8V445.7z M252.4,445.7c0,2.5-1.3,3.8-3.8,3.8c-2.6,0-3.8-1.3-3.8-3.8v-79h-6.4c-2.6,0-3.8-1.3-3.8-3.8
			c0-2.5,1.3-3.8,3.8-3.8h6.4v-8.9c0-24.2,16.6-24.2,17.8-24.2h19.1l0,0c2.6,0,3.8,2.6,3.8,3.8c0,2.6-1.3,3.8-3.8,3.8h-17.8
			c-1.3,0-8.9,0-8.9,15.3v8.9h28.1c2.5,0,3.8,1.3,3.8,3.8s-1.3,3.8-3.8,3.8H255v80.3H252.4z M303.4,450.8c-14,0-25.5-6.4-33.1-17.8
			v67.6c0,2.5-1.3,3.8-3.8,3.8c-2.6,0-3.8-1.3-3.8-3.8V380.7c0-2.6,1.3-3.8,3.8-3.8s3.8,1.3,3.8,3.8v7.6
			c7.6-11.5,20.4-17.8,33.1-17.8c23,0,40.8,17.8,40.8,40.8C343,431.7,325.1,450.8,303.4,450.8z M429.7,445.7c0,2.5-1.3,3.8-3.8,3.8
			c-2.5,0-3.8-1.3-3.8-3.8v-14c-7.6,11.5-20.4,17.9-33.1,17.9c-22.9,0-40.8-17.9-40.8-40.8c0-22.9,17.9-40.8,40.8-40.8
			c14,0,25.5,6.4,33.1,17.9v-7.6c0-2.6,1.3-3.8,3.8-3.8c2.6,0,3.8,1.3,3.8,3.8V445.7z"/>
	</g>
</g>
</svg>
